<?xml version="1.0" standalone="no"?>
<!DOCTYPE svg PUBLIC "-//W3C//DTD SVG 20010904//EN"
 "http://www.w3.org/TR/2001/REC-SVG-20010904/DTD/svg10.dtd">
<svg version="1.0" xmlns="http://www.w3.org/2000/svg"
 width="64.000000pt" height="64.000000pt" viewBox="0 0 64.000000 64.000000"
 preserveAspectRatio="xMidYMid meet">

<g transform="translate(0.000000,64.000000) scale(0.100000,-0.100000)"
fill="#000000" stroke="none">
<path d="M0 320 l0 -320 320 0 320 0 0 320 0 320 -320 0 -320 0 0 -320z m290
0 l0 -180 -70 0 -70 0 0 180 0 180 70 0 70 0 0 -180z m165 150 c45 -42 44
-123 -1 -165 l-25 -23 31 -30 c24 -24 30 -39 30 -71 l0 -41 -80 0 -80 0 0 181
0 182 50 -5 c34 -4 59 -13 75 -28z"/>
</g>
</svg>
